<svg width="374" height="297" viewBox="0 0 374 297" fill="none" xmlns="http://www.w3.org/2000/svg">
<g clip-path="url(#clip0_541_22454)">
<path d="M116.274 290.285C154.042 277.274 198.861 251.999 240.024 258.508L296.519 267.441C350.758 276.018 392.067 225.363 365.667 182.795C356.248 167.606 355.103 149.457 362.582 133.45C396.131 61.647 271.316 -24.5899 209.301 10.8678C185.724 24.3483 160.65 31.3257 133.675 23.0289L114.346 17.0842C68.3725 2.94408 21.9511 37.2825 29.8651 79.576C32.8292 95.4166 27.9902 111.621 16.5584 124.135C-28.3446 173.292 26.6139 321.17 116.274 290.285Z" fill="#ABB2E7"/>
<mask id="mask0_541_22454" style="mask-type:alpha" maskUnits="userSpaceOnUse" x="0" y="2" width="374" height="293">
<path d="M116.274 290.285C154.042 277.274 198.861 251.999 240.024 258.508L296.519 267.441C350.758 276.018 392.067 225.363 365.667 182.795C356.248 167.606 355.103 149.457 362.582 133.45C396.131 61.647 271.316 -24.5899 209.301 10.8679C185.724 24.3483 160.65 31.3258 133.675 23.029L114.346 17.0842C68.3725 2.94412 21.9511 37.2826 29.8651 79.576C32.8292 95.4166 27.9902 111.621 16.5584 124.136C-28.3446 173.292 26.6139 321.17 116.274 290.285Z" fill="#ABB2E7"/>
</mask>
<g mask="url(#mask0_541_22454)">
<path d="M332.705 234.799C332.939 252.557 320.828 267.55 314.676 272.801H305.25C312.258 249.108 323.843 237.327 330.336 233.406C331.416 232.754 332.688 233.537 332.705 234.799Z" fill="#050038"/>
<path d="M333.701 176.536C343.358 212.846 319.016 255.85 308.549 271.859H287.34C296.45 203.349 311.723 186.699 331.033 175.448C332.07 174.844 333.393 175.377 333.701 176.536Z" fill="white"/>
<path fill-rule="evenodd" clip-rule="evenodd" d="M331.508 176.262C332.017 175.965 332.645 176.232 332.79 176.779C337.547 194.667 333.943 214.28 327.784 231.493C321.739 248.387 313.275 262.857 308.038 270.916H288.417C292.951 237.328 298.977 216.46 306.197 202.617C313.467 188.678 321.968 181.821 331.508 176.262ZM334.612 176.294C334.141 174.522 332.122 173.722 330.558 174.633C320.789 180.326 311.997 187.42 304.526 201.745C297.08 216.022 290.966 237.439 286.405 271.734L286.263 272.801H309.059L309.338 272.375C314.595 264.335 323.339 249.513 329.559 232.128C335.774 214.759 339.511 194.716 334.612 176.294Z" fill="#050038"/>
<path d="M299.502 198.875C307.844 229.303 298.295 260.925 292.052 272.801H276.499C273 235.717 287.22 208.75 296.569 198.149C297.491 197.103 299.134 197.53 299.502 198.875Z" fill="#050038"/>
<path fill-rule="evenodd" clip-rule="evenodd" d="M320.497 202.373L325.571 188.117L327.348 188.75L315.726 221.402L323.361 219.11L323.903 220.915L314.941 223.606L304.371 253.303L313.884 249.765L314.542 251.532L303.546 255.621L297.654 272.175L295.878 271.543L307.844 237.923L303.419 225.514L305.195 224.881L308.844 235.114L319.429 205.376L316.13 194.36L317.936 193.819L320.497 202.373Z" fill="#050038"/>
<path fill-rule="evenodd" clip-rule="evenodd" d="M291.548 223.172L293.953 209.946L295.808 210.283L290.927 237.13L297.269 233.79L298.147 235.458L290.498 239.486L286.312 262.512L291.556 258.392L292.72 259.874L285.803 265.309L284.496 272.499L282.641 272.161L285.994 253.719L280.464 246.509L281.96 245.362L286.449 251.215L291.126 225.492L286.647 220.653L288.031 219.372L291.548 223.172Z" fill="white"/>
<path d="M52.9168 261.141C52.6716 279.738 65.355 295.439 71.7968 300.939H81.6689C74.33 276.126 62.1969 263.788 55.3978 259.682C54.266 258.999 52.9343 259.819 52.9168 261.141Z" fill="#050038"/>
<path d="M51.8736 200.125C41.7603 238.151 67.2521 283.186 78.2138 299.951H100.426C90.8848 228.205 74.8895 210.768 54.6677 198.985C53.5819 198.353 52.1966 198.911 51.8736 200.125Z" fill="white"/>
<path fill-rule="evenodd" clip-rule="evenodd" d="M54.1706 199.838C53.637 199.527 52.9799 199.806 52.8276 200.379C47.8453 219.112 51.6203 239.653 58.07 257.679C64.4003 275.371 73.2651 290.524 78.7486 298.964H99.2972C94.5493 263.789 88.2376 241.935 80.6767 227.438C73.063 212.84 64.161 205.659 54.1706 199.838ZM50.9195 199.871C51.4131 198.015 53.5268 197.178 55.1646 198.132C65.3961 204.094 74.6026 211.523 82.4273 226.525C90.2249 241.476 96.628 263.905 101.404 299.821L101.553 300.939H77.6797L77.3874 300.492C71.8824 292.072 62.7254 276.55 56.211 258.344C49.7027 240.154 45.7885 219.164 50.9195 199.871Z" fill="#050038"/>
<path d="M87.6879 223.519C78.9523 255.385 88.9522 288.501 95.49 300.939H111.779C115.442 262.102 100.551 233.861 90.7601 222.759C89.7941 221.663 88.074 222.111 87.6879 223.519Z" fill="#050038"/>
<path fill-rule="evenodd" clip-rule="evenodd" d="M65.7005 227.183L60.3867 212.254L58.5266 212.916L70.6978 247.111L62.7021 244.71L62.1343 246.601L71.5193 249.419L82.5888 280.519L72.6259 276.814L71.9377 278.665L83.4529 282.947L89.6232 300.282L91.4833 299.62L78.9518 264.413L83.5856 251.417L81.7259 250.754L77.9046 261.471L66.8198 230.328L70.2743 218.791L68.3829 218.225L65.7005 227.183Z" fill="#050038"/>
<path fill-rule="evenodd" clip-rule="evenodd" d="M96.0176 248.965L93.4993 235.114L91.5567 235.467L96.6685 263.581L90.0264 260.084L89.1064 261.831L97.1172 266.049L101.501 290.163L96.0097 285.848L94.7899 287.4L102.034 293.092L103.403 300.622L105.346 300.268L101.834 280.955L107.626 273.404L106.059 272.203L101.357 278.332L96.4593 251.394L101.15 246.326L99.7011 244.985L96.0176 248.965Z" fill="white"/>
<path d="M179.425 47.1341L136.307 76.8157C135.778 77.1803 135.74 77.9479 136.231 78.3623L181.146 116.233C181.496 116.528 182.004 116.54 182.368 116.262L231.905 78.4252C232.457 78.0035 232.403 77.1566 231.801 76.8085L180.468 47.0933C180.142 46.9045 179.736 46.9204 179.425 47.1341Z" fill="#050038"/>
<path fill-rule="evenodd" clip-rule="evenodd" d="M135.488 110.707V77.5396H137.439V110.707H135.488Z" fill="#050038"/>
<path d="M140.085 113.119C140.085 115.118 138.463 116.738 136.463 116.738C134.462 116.738 132.84 115.118 132.84 113.119C132.84 111.121 134.462 109.501 136.463 109.501C138.463 109.501 140.085 111.121 140.085 113.119Z" fill="#050038"/>
<path d="M169.251 123.04L167.513 138.084L168.092 149.657L189.526 151.971L198.795 140.399L197.057 123.04C200.589 121.025 203.242 115.497 203.868 106.839C205.073 106.454 207.484 104.641 207.484 100.475C207.484 96.3087 204.842 94.8815 203.52 94.6886C201.64 80.6436 194.345 75.5945 181.995 75.5945C170.155 75.5945 163.736 83.3294 161.788 94.6886C160.414 94.4958 157.665 95.383 157.665 100.475C157.665 105.566 160.134 106.839 161.369 106.839C162.501 116.649 167.541 121.674 169.251 123.04Z" fill="#FEE6C2"/>
<path fill-rule="evenodd" clip-rule="evenodd" d="M165.772 133.457C160.172 133.612 145.476 135.544 132.463 141.613C124.125 144.797 115.136 150.222 109.009 159.035C100.665 171.035 96.9363 181.691 94.4988 189.122C93.6223 191.491 92.7043 194.069 91.7942 196.797C83.0333 223.052 75.0022 263.129 111.759 263.129L111.918 262.618C111.981 268.855 112.112 299.326 112.303 304.347H240.98H248.983L278.186 279.63C283.961 264.018 288.813 247.44 289.079 241.078C289.658 227.191 271.7 165.858 241.577 147.343C241.533 147.318 241.488 147.294 241.444 147.269C241.423 147.1 241.403 146.932 241.382 146.765C226.809 136.334 211.069 133.241 201.688 133.457C201.688 137.314 198.096 145.029 183.73 145.029C169.363 145.029 166.158 137.314 165.772 133.457Z" fill="#3F53D9"/>
<path d="M158.245 84.8527C157.318 90.4074 158.245 98.1607 160.562 101.054L165.196 91.2174C166.587 92.1431 173.113 92.3746 175.624 92.3746C185.356 91.9117 192.423 86.3956 194.74 83.6954C195.204 87.8614 201.498 98.9322 204.009 103.947C207.098 99.3179 209.106 87.1671 206.326 75.5949C203.545 64.0227 195.899 63.4441 191.264 64.6014C178.52 54.765 164.038 55.9222 157.086 65.7586C151.525 73.6277 154.769 81.7668 158.245 84.8527Z" fill="#050038"/>
<path d="M241.581 248.02C241.117 239.225 235.595 218.125 232.891 208.674C236.946 219.089 247.374 236.448 247.374 248.02C247.374 253.474 244.425 266.691 241.134 279.63H238.366C240.246 266.55 241.855 253.23 241.581 248.02Z" fill="#050038"/>
<path d="M182.521 127.789C175.106 127.789 170.549 124.703 169.197 123.16L168.618 128.946C181.594 136.352 193.335 132.032 197.583 128.946L197.003 123.16C195.265 124.703 189.936 127.789 182.521 127.789Z" fill="#050038"/>
<path d="M172.249 197.484C171.805 195.932 172.714 194.348 174.28 193.947L180.263 192.414C181.828 192.013 183.457 192.946 183.901 194.498L200.971 254.205C201.414 255.757 200.505 257.34 198.94 257.741L192.957 259.274C191.391 259.675 189.763 258.742 189.319 257.19L172.249 197.484Z" fill="white"/>
<path fill-rule="evenodd" clip-rule="evenodd" d="M171.304 197.726C170.713 195.656 171.925 193.545 174.012 193.011L179.995 191.478C182.082 190.943 184.254 192.187 184.845 194.257L201.915 253.963C202.507 256.032 201.295 258.144 199.208 258.678L193.224 260.211C191.137 260.746 188.966 259.502 188.374 257.432L171.304 197.726ZM174.548 194.884C173.504 195.152 172.898 196.207 173.194 197.242L190.264 256.948C190.56 257.983 191.645 258.605 192.689 258.338L198.672 256.805C199.716 256.537 200.322 255.482 200.026 254.447L182.956 194.741C182.66 193.706 181.574 193.084 180.531 193.351L174.548 194.884Z" fill="#050038"/>
<path d="M185.045 212.195C183.233 212.58 176.728 218.025 173.701 220.699C172.203 226.863 171.433 239.011 180.344 238.283C191.482 237.374 200.449 236.196 198.316 223.74C196.61 213.776 190.441 214.131 187.569 215.554C187.483 214.274 186.857 211.809 185.045 212.195Z" fill="#FEE6C2"/>
<path d="M179.244 237.267L175.37 221.433C174.614 218.341 171.731 216.254 168.547 216.368C156.134 216.81 138.726 216.267 125.337 216.971L137.164 258.756C148.689 255.913 164.987 249.749 171.695 247.022L176.176 244.439C178.68 242.995 179.93 240.073 179.244 237.267Z" fill="#3F53D9"/>
<path d="M111.761 263.128C120.851 262.696 141.518 257.724 141.518 257.724C141.518 257.724 160.44 252.648 176.948 242.654C162.941 258.644 120.779 270.154 112.303 272.856L111.761 263.128Z" fill="#050038"/>
<path d="M114.917 217.171C120.146 217.171 151.935 219.17 167.944 219.17C152.034 215.51 144.316 214.854 130.7 213.697L130.424 213.674L126.923 199.183L125.922 213.674L114.917 217.171Z" fill="#050038"/>
<path d="M155.612 81.8258L158.008 92.5566C158.145 93.1684 158.818 93.4927 159.391 93.2376C177.215 85.3079 197.629 90.4332 206.95 93.4351C207.481 93.606 208.046 93.3033 208.196 92.7667L211.234 81.8804C211.367 81.4051 211.12 80.9037 210.661 80.7218C188.261 71.8482 165.542 76.8288 156.167 80.7343C155.738 80.9129 155.511 81.373 155.612 81.8258Z" fill="#050038"/>
</g>
<path d="M336.591 130.689V43.9714C336.591 40.7977 334.011 38.2248 330.828 38.2248H272.27C270.741 38.2248 269.275 38.8303 268.194 39.908L256.552 51.517C255.471 52.5947 254.864 54.0564 254.864 55.5805V130.689C254.864 133.862 257.444 136.435 260.627 136.435H330.828C334.011 136.435 336.591 133.862 336.591 130.689Z" fill="white"/>
<path fill-rule="evenodd" clip-rule="evenodd" d="M267.379 39.0951C268.676 37.8019 270.435 37.0753 272.269 37.0753H330.827C334.647 37.0753 337.743 40.1627 337.743 43.9713V130.688C337.743 134.497 334.647 137.584 330.827 137.584H260.627C256.807 137.584 253.711 134.497 253.711 130.688V55.5803C253.711 53.7514 254.44 51.9974 255.736 50.7041L267.379 39.0951ZM272.269 39.374C271.046 39.374 269.873 39.8583 269.009 40.7205L257.367 52.3295C256.502 53.1917 256.016 54.361 256.016 55.5803V130.688C256.016 133.227 258.08 135.286 260.627 135.286H330.827C333.374 135.286 335.438 133.227 335.438 130.688V43.9713C335.438 41.4322 333.374 39.374 330.827 39.374H272.269Z" fill="#050038"/>
<path d="M255.213 53.2002L270.231 38.2248V49.7522C270.231 51.6565 268.683 53.2002 266.773 53.2002H255.213Z" fill="#050038"/>
<path fill-rule="evenodd" clip-rule="evenodd" d="M318.081 92.0998H271.978V89.8012H318.081V92.0998ZM318.081 106.727H271.978V104.428H318.081V106.727ZM309.698 120.309H271.978V118.011H309.698V120.309Z" fill="#E7E8FF"/>
<path fill-rule="evenodd" clip-rule="evenodd" d="M300.414 55.6173L293.961 62.496L290.106 57.9991L291.657 56.5977L294.023 59.357L298.919 54.1372L300.414 55.6173Z" fill="#3F53D9"/>
<path d="M281.77 70.624V80.9572H279.619V76.5063H275.069V80.9572H272.918V70.624H275.069V75.0108H279.619V70.624H281.77ZM286.085 80.9572H283.934V70.624H286.085V80.9572ZM291.479 75.5164C291.825 75.5164 292.125 75.4737 292.376 75.3882C292.628 75.298 292.834 75.177 292.996 75.0251C293.157 74.8684 293.276 74.6856 293.352 74.4767C293.428 74.2678 293.466 74.0399 293.466 73.7931C293.466 73.3041 293.302 72.9243 292.974 72.6536C292.652 72.383 292.158 72.2477 291.493 72.2477H290.382V75.5164H291.479ZM296.485 80.9572H294.555C294.194 80.9572 293.933 80.8195 293.772 80.5441L291.806 77.3751C291.726 77.2517 291.636 77.1615 291.536 77.1045C291.441 77.0475 291.298 77.019 291.109 77.019H290.382V80.9572H288.246V70.624H291.493C292.215 70.624 292.832 70.7 293.345 70.8519C293.857 70.9991 294.278 71.2056 294.605 71.4715C294.933 71.7374 295.172 72.0554 295.324 72.4258C295.476 72.7913 295.552 73.1949 295.552 73.6364C295.552 73.9782 295.502 74.3034 295.403 74.612C295.308 74.9159 295.168 75.1936 294.983 75.4452C294.797 75.6968 294.57 75.92 294.299 76.1146C294.028 76.3093 293.72 76.4659 293.373 76.5846C293.511 76.6606 293.639 76.7532 293.758 76.8624C293.876 76.9668 293.983 77.0926 294.078 77.2398L296.485 80.9572ZM299.646 72.2976V74.9538H303.093V76.5704H299.646V79.2836H304.075V80.9572H297.495V70.624H304.075V72.2976H299.646ZM314.939 75.787C314.939 76.5419 314.81 77.2374 314.554 77.8736C314.302 78.505 313.944 79.0486 313.479 79.5044C313.018 79.9602 312.463 80.3162 311.812 80.5726C311.162 80.829 310.44 80.9572 309.647 80.9572H305.674V70.624H309.647C310.44 70.624 311.162 70.7522 311.812 71.0086C312.463 71.265 313.018 71.6234 313.479 72.0839C313.944 72.5397 314.302 73.0833 314.554 73.7147C314.81 74.3462 314.939 75.0369 314.939 75.787ZM312.745 75.787C312.745 75.2458 312.674 74.7592 312.532 74.3272C312.389 73.8951 312.185 73.5296 311.919 73.2305C311.653 72.9314 311.328 72.7011 310.943 72.5397C310.564 72.3783 310.132 72.2976 309.647 72.2976H307.824V79.2836H309.647C310.132 79.2836 310.564 79.2053 310.943 79.0486C311.328 78.8872 311.653 78.657 311.919 78.3579C312.185 78.054 312.389 77.6861 312.532 77.254C312.674 76.822 312.745 76.333 312.745 75.787ZM318.389 70.624V74.6975C318.389 75.1295 318.365 75.5568 318.318 75.9793C318.275 76.4019 318.213 76.841 318.132 77.2968H316.808C316.727 76.841 316.663 76.4019 316.616 75.9793C316.573 75.5568 316.551 75.1295 316.551 74.6975V70.624H318.389ZM316.288 79.9246C316.288 79.7679 316.316 79.6207 316.373 79.483C316.435 79.3406 316.518 79.2195 316.623 79.1198C316.727 79.0154 316.848 78.9347 316.986 78.8777C317.128 78.816 317.283 78.7851 317.449 78.7851C317.61 78.7851 317.76 78.816 317.897 78.8777C318.04 78.9347 318.163 79.0154 318.268 79.1198C318.372 79.2195 318.455 79.3406 318.517 79.483C318.579 79.6207 318.609 79.7679 318.609 79.9246C318.609 80.086 318.579 80.2355 318.517 80.3732C318.455 80.5109 318.372 80.6319 318.268 80.7364C318.163 80.8361 318.04 80.9144 317.897 80.9714C317.76 81.0284 317.61 81.0569 317.449 81.0569C317.283 81.0569 317.128 81.0284 316.986 80.9714C316.848 80.9144 316.727 80.8361 316.623 80.7364C316.518 80.6319 316.435 80.5109 316.373 80.3732C316.316 80.2355 316.288 80.086 316.288 79.9246Z" fill="#050038"/>
<path d="M66.5325 117.572C70.5263 112.797 70.8595 107.751 70.5269 105.824L83.5303 102.609C84.7726 105.888 86.341 113.276 82.6763 116.592C79.0117 119.909 79.7005 127.228 80.5029 130.472C77.5009 129.493 69.6366 131.868 66.0797 133.178C64.5665 129.966 62.5386 122.347 66.5325 117.572Z" fill="white"/>
<path d="M46.8431 81.5541C60.4213 76.4744 70.4379 78.7315 73.749 80.495L78.3658 64.2894C63.195 58.7447 49.1571 65.9179 44.0345 70.1976L46.8431 81.5541Z" fill="white"/>
<path d="M91.5809 58.4387L84.5979 51.1274C86.0896 50.1846 89.2419 46.1914 89.9169 37.7609C90.5918 29.3304 98.5435 27.3064 102.435 27.3483L105.66 35.1585C102.914 36.8419 99.3587 37.5778 100.04 47.3083C100.554 54.6442 94.9991 58.3107 91.5809 58.4387Z" fill="white"/>
<path fill-rule="evenodd" clip-rule="evenodd" d="M94.5799 28.7425C97.2845 27.0993 100.392 26.5816 102.445 26.6037L102.94 26.609L106.595 35.4589L106.052 35.7919C105.699 36.0083 105.355 36.2006 105.022 36.3866C103.934 36.995 102.964 37.5371 102.176 38.6444C101.175 40.0496 100.452 42.4598 100.788 47.2541C101.333 55.0428 95.4149 59.0402 91.6062 59.1828L91.2683 59.1955L83.4273 50.9858L84.1968 50.4995C84.7835 50.1287 85.8655 49.0268 86.8891 46.9291C87.9028 44.8517 88.8384 41.8377 89.1693 37.7044C89.5282 33.2222 91.8416 30.4062 94.5799 28.7425ZM95.3588 30.0123C92.9796 31.4578 90.9797 33.8691 90.6637 37.8174C90.3196 42.1146 89.3416 45.3124 88.2375 47.575C87.407 49.277 86.4924 50.4741 85.7041 51.2024L91.882 57.6707C94.9407 57.3422 99.7573 54.0035 99.2922 47.3626C98.9465 42.4262 99.6599 39.6033 100.953 37.7871C101.957 36.3767 103.307 35.6277 104.441 34.9989C104.535 34.9466 104.628 34.8951 104.719 34.8441L101.933 28.0989C100.109 28.161 97.5659 28.6714 95.3588 30.0123ZM44.8748 70.4737L47.3713 80.5682C59.7711 76.1397 69.2145 77.7174 73.2701 79.4429L77.4536 64.7581C63.217 59.8908 50.0742 66.3329 44.8748 70.4737ZM43.5529 69.6283C48.7943 65.2494 63.1117 57.9201 78.6264 63.5904L79.2753 63.8276L74.2151 81.5896L73.3927 81.1516C70.3023 79.5056 60.5153 77.2339 47.1047 82.2508L46.3156 82.546L43.1949 69.9274L43.5529 69.6283ZM69.6698 105.27L83.9974 101.726L84.2315 102.344C84.8746 104.042 85.5995 106.79 85.6921 109.559C85.7838 112.3 85.2606 115.259 83.1797 117.142C81.5626 118.606 80.8427 121.025 80.6618 123.608C80.4826 126.168 80.8442 128.73 81.2305 130.292L81.5538 131.6L80.2666 131.18C79.6638 130.983 78.7334 130.936 77.5453 131.04C76.3773 131.141 75.0383 131.379 73.6643 131.693C70.9168 132.319 68.0932 133.23 66.3378 133.877L65.6917 134.115L65.4003 133.496C64.6106 131.82 63.6968 129.022 63.4928 126.014C63.289 123.01 63.7879 119.69 65.9563 117.098C69.8016 112.5 70.0855 107.677 69.7877 105.953L69.6698 105.27ZM71.3473 106.388C71.5255 108.827 70.855 113.567 67.1079 118.047C65.2825 120.23 64.7983 123.106 64.9884 125.909C65.1547 128.36 65.8327 130.673 66.4847 132.241C68.2864 131.606 70.8345 130.811 73.3338 130.241C74.7456 129.919 76.158 129.666 77.4199 129.556C78.163 129.491 78.8832 129.474 79.5344 129.533C79.2285 127.887 79.0126 125.705 79.1664 123.51C79.3566 120.794 80.1247 117.896 82.1723 116.043C83.756 114.609 84.2809 112.216 84.1939 109.614C84.1184 107.354 83.5845 105.085 83.0497 103.494L71.3473 106.388Z" fill="#050038"/>
<path d="M70.1756 117.019C69.8416 119.839 71.9138 121.151 72.9917 121.455C75.1156 121.357 76.2322 120.653 77.5594 117.331C78.8865 114.009 76.4629 112.898 75.1483 112.795C73.8336 112.692 70.5931 113.494 70.1756 117.019Z" fill="#050038"/>
<path d="M65.4918 70.2742C65.2626 66.5671 61.899 66.1729 60.2459 66.4392C58.9977 66.6053 56.4178 67.6425 56.0838 70.4624C55.6663 73.9873 58.1896 75.5018 59.5043 75.6043C60.8189 75.7069 65.7783 74.9081 65.4918 70.2742Z" fill="#050038"/>
<path d="M95.1419 38.9899C93.6067 38.3431 92.3382 40.3962 91.8958 41.5036C91.5531 43.014 91.3125 46.0959 93.0919 46.3402C95.3162 46.6455 96.6371 45.0357 96.9486 42.8201C97.2602 40.6045 97.0609 39.7985 95.1419 38.9899Z" fill="#050038"/>
<path d="M323.776 12.6683L324.4 8.52892C324.512 7.79172 325.49 7.63839 325.823 8.306L327.648 11.9668C327.758 12.1883 327.967 12.3428 328.208 12.3816L332.57 13.0846C333.273 13.1978 333.453 14.142 332.841 14.5058L329.002 16.7886C328.816 16.8996 328.685 17.0868 328.644 17.3028L327.723 22.1824C327.586 22.9071 326.617 23.0312 326.3 22.3648L324.293 18.1576C324.195 17.9526 324.013 17.8016 323.796 17.7451L318.947 16.4841C318.234 16.2986 318.169 15.2953 318.853 15.0249L323.307 13.2634C323.557 13.1645 323.736 12.9379 323.776 12.6683Z" fill="#F5A041"/>
<path d="M342.384 23.813L343.132 22.6972C343.545 22.0818 344.495 22.3703 344.514 23.1166L344.547 24.4301C344.553 24.6777 344.677 24.9077 344.879 25.0479L346.217 25.9769C346.806 26.3852 346.569 27.314 345.861 27.3748L344.203 27.5172C343.987 27.5358 343.79 27.6476 343.662 27.8243L342.56 29.3412C342.129 29.9341 341.199 29.6235 341.194 28.8848L341.18 27.1847C341.179 26.9575 341.078 26.7422 340.905 26.5967L339.45 25.3709C338.883 24.8929 339.249 23.961 339.982 24.0157L341.707 24.1441C341.975 24.1641 342.233 24.0381 342.384 23.813Z" fill="#F5A041"/>
<path d="M32.2629 20.319L29.521 17.1557C29.0327 16.5924 28.1242 16.9862 28.2002 17.7283L28.617 21.7975C28.6422 22.0437 28.5486 22.2858 28.3657 22.4477L25.0562 25.3755C24.5232 25.847 24.8763 26.7411 25.5877 26.7211L30.0523 26.5959C30.2694 26.5898 30.4796 26.6783 30.6296 26.8389L34.0189 30.4684C34.5223 31.0074 35.407 30.594 35.319 29.8609L34.7632 25.233C34.7361 25.0075 34.809 24.7826 34.9622 24.6188L38.3841 20.9592C38.8874 20.421 38.4055 19.5385 37.6833 19.6759L32.9779 20.5706C32.7137 20.6208 32.4415 20.525 32.2629 20.319Z" fill="#F5A041"/>
<path d="M20.9431 43.7229L19.7139 43.1805C19.036 42.8815 18.3871 43.6339 18.7705 44.2744L19.4453 45.4017C19.5725 45.6143 19.5913 45.8747 19.4956 46.1012L18.8618 47.6022C18.5833 48.2619 19.2802 48.9199 19.9107 48.5926L21.3877 47.8258C21.5801 47.7259 21.8065 47.7149 22.0095 47.7955L23.7521 48.4875C24.4332 48.7579 25.0524 47.9981 24.662 47.371L23.7635 45.9277C23.6435 45.7348 23.6134 45.499 23.6815 45.2836L24.2547 43.4697C24.4782 42.7623 23.6706 42.1708 23.0802 42.6094L21.6922 43.6404C21.4762 43.8009 21.191 43.8323 20.9431 43.7229Z" fill="#F5A041"/>
</g>
<defs>
<clipPath id="clip0_541_22454">
<rect width="373.225" height="296.603" fill="white" transform="translate(0.774902)"/>
</clipPath>
</defs>
</svg>
